<?xml version="1.0" encoding="UTF-8"?><svg xmlns="http://www.w3.org/2000/svg" xmlns:xlink="http://www.w3.org/1999/xlink" height="229.6" preserveAspectRatio="xMidYMid meet" version="1.0" viewBox="104.1 100.9 220.1 229.6" width="220.1" zoomAndPan="magnify"><g><g id="change1_1"><path d="M 298.589844 219.910156 C 298.589844 264.265625 262.632812 300.222656 218.277344 300.222656 C 173.921875 300.222656 137.964844 264.265625 137.964844 219.910156 C 137.964844 175.554688 173.921875 139.597656 218.277344 139.597656 C 262.632812 139.597656 298.589844 175.554688 298.589844 219.910156" fill="#fccf3b"/></g><path d="M 2985.898438 2052.898438 C 2985.898438 1609.34375 2626.328125 1249.773438 2182.773438 1249.773438 C 1739.21875 1249.773438 1379.648438 1609.34375 1379.648438 2052.898438 C 1379.648438 2496.453125 1739.21875 2856.023438 2182.773438 2856.023438" fill="none" stroke="#4d56af" stroke-linecap="round" stroke-linejoin="round" stroke-miterlimit="10" stroke-width="50" transform="matrix(.1 0 0 -.1 0 425.2)"/><path d="M 2782.617188 2052.898438 C 2782.617188 1721.609375 2514.0625 1453.054688 2182.773438 1453.054688 C 1851.484375 1453.054688 1582.929688 1721.609375 1582.929688 2052.898438 C 1582.929688 2279.226562 1708.28125 2476.257812 1893.320312 2578.40625 C 1979.140625 2625.789062 2077.8125 2652.742188 2182.773438 2652.742188" fill="none" stroke="#4d56af" stroke-linecap="round" stroke-linejoin="round" stroke-miterlimit="10" stroke-width="50" transform="matrix(.1 0 0 -.1 0 425.2)"/><path d="M 1640.820312 2644.226562 C 1314.21875 2344.890625 1292.109375 1837.507812 1591.445312 1510.945312 C 1890.742188 1184.382812 2398.164062 1162.273438 2724.726562 1461.609375 C 2947.851562 1666.0625 3028.867188 1967.664062 2962.34375 2242.351562" fill="none" stroke="#4d56af" stroke-linecap="round" stroke-linejoin="round" stroke-miterlimit="10" stroke-width="50" transform="matrix(.1 0 0 -.1 0 425.2)"/><g id="change2_1"><path d="M 229.921875 235.078125 L 216.53125 235.078125 L 216.53125 222.316406 L 229.921875 222.316406 C 233.445312 222.316406 236.304688 225.179688 236.304688 228.699219 C 236.304688 232.21875 233.445312 235.078125 229.921875 235.078125 Z M 215.183594 196.183594 L 224.824219 196.183594 C 226.289062 196.183594 227.644531 196.644531 228.761719 197.421875 C 230.566406 198.671875 231.753906 200.757812 231.753906 203.113281 C 231.753906 205.46875 230.566406 207.550781 228.761719 208.804688 C 227.644531 209.578125 226.289062 210.039062 224.824219 210.039062 L 215.183594 210.039062 Z M 238.886719 213.398438 C 241.035156 210.523438 242.328125 206.972656 242.328125 203.113281 C 242.328125 195.265625 237.050781 188.644531 229.863281 186.574219 L 229.863281 179.167969 L 221.007812 179.167969 L 221.007812 185.890625 L 213.460938 185.890625 L 213.460938 179.167969 L 204.605469 179.167969 L 204.605469 185.890625 L 197.554688 185.890625 L 197.554688 194.746094 L 204.605469 194.746094 L 204.605469 237.0625 L 197.554688 237.0625 L 197.554688 245.921875 L 204.605469 245.921875 L 204.605469 252.644531 L 213.460938 252.644531 L 213.460938 245.921875 L 221.007812 245.921875 L 221.007812 252.644531 L 229.863281 252.644531 L 229.863281 245.921875 L 231.011719 245.921875 C 240.507812 245.921875 248.234375 238.195312 248.234375 228.699219 C 248.234375 222.039062 244.429688 216.265625 238.886719 213.398438" fill="#fff"/></g><path d="M 2192.148438 2652.664062 L 2352.890625 2965.164062" fill="none" stroke="#4d56af" stroke-linecap="round" stroke-linejoin="round" stroke-miterlimit="10" stroke-width="50" transform="matrix(.1 0 0 -.1 0 425.2)"/><path d="M 2454.414062 2528.835938 L 2727.851562 3060.4375" fill="none" stroke="#4d56af" stroke-linecap="round" stroke-linejoin="round" stroke-miterlimit="10" stroke-width="50" transform="matrix(.1 0 0 -.1 0 425.2)"/><path d="M 2712.421875 2384.460938 L 2891.601562 2732.742188" fill="none" stroke="#4d56af" stroke-linecap="round" stroke-linejoin="round" stroke-miterlimit="10" stroke-width="50" transform="matrix(.1 0 0 -.1 0 425.2)"/><g id="change2_2"><path d="M 305.476562 135.773438 C 305.476562 140.714844 301.46875 144.722656 296.527344 144.722656 C 291.582031 144.722656 287.574219 140.714844 287.574219 135.773438 C 287.574219 130.828125 291.582031 126.820312 296.527344 126.820312 C 301.46875 126.820312 305.476562 130.828125 305.476562 135.773438" fill="#fff"/></g><path d="M 3054.765625 2894.265625 C 3054.765625 2844.851562 3014.6875 2804.773438 2965.273438 2804.773438 C 2915.820312 2804.773438 2875.742188 2844.851562 2875.742188 2894.265625 C 2875.742188 2943.71875 2915.820312 2983.796875 2965.273438 2983.796875 C 3014.6875 2983.796875 3054.765625 2943.71875 3054.765625 2894.265625 Z M 3054.765625 2894.265625" fill="none" stroke="#4d56af" stroke-linecap="round" stroke-linejoin="round" stroke-miterlimit="10" stroke-width="50" transform="matrix(.1 0 0 -.1 0 425.2)"/><g id="change2_3"><path d="M 124.457031 235.230469 C 124.457031 240.171875 120.449219 244.183594 115.507812 244.183594 C 110.5625 244.183594 106.554688 240.171875 106.554688 235.230469 C 106.554688 230.285156 110.5625 226.277344 115.507812 226.277344 C 120.449219 226.277344 124.457031 230.285156 124.457031 235.230469" fill="#fff"/></g><path d="M 1244.570312 1899.695312 C 1244.570312 1850.28125 1204.492188 1810.164062 1155.078125 1810.164062 C 1105.625 1810.164062 1065.546875 1850.28125 1065.546875 1899.695312 C 1065.546875 1949.148438 1105.625 1989.226562 1155.078125 1989.226562 C 1204.492188 1989.226562 1244.570312 1949.148438 1244.570312 1899.695312 Z M 1244.570312 1899.695312" fill="none" stroke="#4d56af" stroke-linecap="round" stroke-linejoin="round" stroke-miterlimit="10" stroke-width="50" transform="matrix(.1 0 0 -.1 0 425.2)"/><g id="change2_4"><path d="M 250.25 112.382812 C 250.25 117.328125 246.242188 121.335938 241.300781 121.335938 C 236.355469 121.335938 232.347656 117.328125 232.347656 112.382812 C 232.347656 107.441406 236.355469 103.433594 241.300781 103.433594 C 246.242188 103.433594 250.25 107.441406 250.25 112.382812" fill="#fff"/></g><path d="M 2502.5 3128.171875 C 2502.5 3078.71875 2462.421875 3038.640625 2413.007812 3038.640625 C 2363.554688 3038.640625 2323.476562 3078.71875 2323.476562 3128.171875 C 2323.476562 3177.585938 2363.554688 3217.664062 2413.007812 3217.664062 C 2462.421875 3217.664062 2502.5 3177.585938 2502.5 3128.171875 Z M 2502.5 3128.171875" fill="none" stroke="#4d56af" stroke-linecap="round" stroke-linejoin="round" stroke-miterlimit="10" stroke-width="50" transform="matrix(.1 0 0 -.1 0 425.2)"/><g id="change2_5"><path d="M 287.660156 216.878906 C 287.660156 222.070312 283.449219 226.277344 278.261719 226.277344 C 273.070312 226.277344 268.859375 222.070312 268.859375 216.878906 C 268.859375 211.6875 273.070312 207.476562 278.261719 207.476562 C 283.449219 207.476562 287.660156 211.6875 287.660156 216.878906" fill="#fff"/></g><path d="M 2876.601562 2083.210938 C 2876.601562 2031.296875 2834.492188 1989.226562 2782.617188 1989.226562 C 2730.703125 1989.226562 2688.59375 2031.296875 2688.59375 2083.210938 C 2688.59375 2135.125 2730.703125 2177.234375 2782.617188 2177.234375 C 2834.492188 2177.234375 2876.601562 2135.125 2876.601562 2083.210938 Z M 2876.601562 2083.210938" fill="none" stroke="#4d56af" stroke-linecap="round" stroke-linejoin="round" stroke-miterlimit="10" stroke-width="50" transform="matrix(.1 0 0 -.1 0 425.2)"/><path d="M 1200.3125 2229.578125 C 1286.40625 2716.023438 1710.351562 3057.742188 2188.046875 3055.984375" fill="none" stroke="#4d56af" stroke-linecap="round" stroke-linejoin="round" stroke-miterlimit="10" stroke-width="50" transform="matrix(.1 0 0 -.1 0 425.2)"/><path d="M 3034.804688 2584.539062 C 3161.015625 2382.15625 3215.78125 2134.226562 3170.9375 1880.867188 C 3074.648438 1336.6875 2555.429688 973.601562 2011.25 1069.890625" fill="none" stroke="#4d56af" stroke-linecap="round" stroke-linejoin="round" stroke-miterlimit="10" stroke-width="50" transform="matrix(.1 0 0 -.1 0 425.2)"/><path d="M 1294.023438 1399.382812 L 1393.125 1428.5625" fill="none" stroke="#4d56af" stroke-linecap="round" stroke-linejoin="round" stroke-miterlimit="10" stroke-width="50" transform="matrix(.1 0 0 -.1 0 425.2)"/><path d="M 1328.984375 1463.523438 L 1358.164062 1364.421875" fill="none" stroke="#4d56af" stroke-linecap="round" stroke-linejoin="round" stroke-miterlimit="10" stroke-width="50" transform="matrix(.1 0 0 -.1 0 425.2)"/><g id="change3_1"><path d="M 177.472656 307.859375 C 180.65625 311.042969 180.65625 316.203125 177.476562 319.382812 C 174.289062 322.566406 169.132812 322.566406 165.949219 319.382812 C 162.769531 316.203125 162.769531 311.042969 165.949219 307.859375 C 169.132812 304.679688 174.289062 304.679688 177.472656 307.859375" fill="#4d56af"/></g></g></svg>